<?xml version="1.0" encoding="iso-8859-1"?>
<!-- Generator: Adobe Illustrator 19.0.0, SVG Export Plug-In . SVG Version: 6.00 Build 0)  -->
<svg xmlns="http://www.w3.org/2000/svg" xmlns:xlink="http://www.w3.org/1999/xlink" version="1.1" id="Layer_1" x="0px" y="0px" viewBox="0 0 414.322 414.322" style="enable-background:new 0 0 414.322 414.322;" xml:space="preserve" width="512" height="512">
<g>
	<g>
		<rect x="102.387" y="131.38" style="fill:#218649;" width="35.229" height="281.873"/>
		<path style="opacity:0.2;fill:#222222;" d="M102.387,131.38v111.354c5.288,3.14,11.271,4.918,17.614,4.918    c6.342,0,12.326-1.778,17.615-4.918V131.38H102.387z"/>
		<g>
			<path style="fill:#D85C72;" d="M235.324,116.392c0-16.308-11.706-30.264-28.302-36.046c7.646-15.823,6.056-33.969-5.475-45.501     c-11.532-11.53-29.678-13.121-45.501-5.475c-5.782-16.595-19.738-28.302-36.045-28.302S89.738,12.776,83.956,29.37     c-15.823-7.647-33.969-6.056-45.5,5.475C26.925,46.378,25.334,64.524,32.98,80.346c-16.595,5.781-28.302,19.737-28.302,36.045     c0,16.309,11.707,30.265,28.302,36.046c-7.646,15.824-6.056,33.969,5.476,45.5c11.532,11.532,29.677,13.123,45.5,5.477     c5.782,16.594,19.738,28.301,36.046,28.301s30.264-11.706,36.045-28.302c15.823,7.646,33.969,6.056,45.5-5.476     c11.531-11.531,13.122-29.676,5.476-45.5C223.618,146.655,235.324,132.699,235.324,116.392z"/>
			<path style="opacity:0.2;fill:#222222;" d="M83.956,29.37c-15.823-7.647-33.969-6.056-45.5,5.475     C26.925,46.378,25.334,64.524,32.98,80.346c-16.595,5.781-28.302,19.737-28.302,36.045c0,16.309,11.707,30.265,28.302,36.046     c-7.646,15.824-6.056,33.969,5.476,45.5c11.532,11.532,29.677,13.123,45.5,5.477c5.782,16.594,19.738,28.301,36.046,28.301V1.069     C103.694,1.069,89.738,12.776,83.956,29.37z"/>
			<circle style="fill:#EED898;" cx="120.001" cy="116.392" r="63.507"/>
			<path style="opacity:0.5;fill:#FFC843;" d="M120.002,52.885c-35.074,0-63.507,28.433-63.507,63.507     c0,35.074,28.433,63.506,63.507,63.506V52.885z"/>
		</g>
		<path style="opacity:0.2;" d="M235.324,116.392c0-16.308-11.706-30.264-28.302-36.046c7.646-15.823,6.056-33.969-5.475-45.501    c-1.571-1.571-3.27-2.951-5.064-4.155c-1.794,1.204-3.492,2.584-5.064,4.155c-11.531,11.532-13.122,29.678-5.475,45.501    c-16.596,5.781-28.302,19.737-28.302,36.045c0,16.309,11.707,30.265,28.302,36.046c-7.646,15.824-6.056,33.969,5.475,45.5    c1.572,1.571,3.269,2.952,5.064,4.155c1.794-1.203,3.492-2.585,5.063-4.155c11.531-11.531,13.122-29.676,5.476-45.5    C223.618,146.655,235.324,132.699,235.324,116.392z"/>
		<g>
			<path style="fill:#218649;" d="M214.266,313.968c28.353-28.354,25.669-77.007,25.669-77.007s-48.654-2.685-77.007,25.668     c-28.353,28.353-25.669,77.008-25.669,77.008S185.913,342.322,214.266,313.968z"/>
			<path style="opacity:0.2;fill:#222222;" d="M137.259,339.638c0,0,48.654,2.684,77.007-25.67     c28.353-28.354,25.669-77.007,25.669-77.007L137.259,339.638z"/>
		</g>
		<path style="opacity:0.2;" d="M200.992,241.699c-12.745,3.541-26.4,9.651-37.253,20.143c2.591,16.195,8.889,37.036,23.979,52.127    c4.074,4.073,8.567,7.503,13.274,10.396c4.707-2.893,9.201-6.322,13.274-10.396c15.09-15.091,21.388-35.932,23.979-52.127    C227.391,251.35,213.737,245.24,200.992,241.699z"/>
		<g>
			<path style="fill:#218649;" d="M25.737,313.968c-28.354-28.354-25.669-77.007-25.669-77.007s48.654-2.685,77.007,25.668     c28.354,28.353,25.669,77.008,25.669,77.008S54.09,342.322,25.737,313.968z"/>
			<path style="opacity:0.2;fill:#222222;" d="M102.744,339.638c0,0-48.654,2.684-77.007-25.67     c-28.354-28.354-25.669-77.007-25.669-77.007L102.744,339.638z"/>
		</g>
		<path style="fill:#95D600;" d="M81.517,413.253c0-14.085-11.327-30.189-15.928-33.463c9.203-0.273,28.671,5.186,34.688,15.285    c1.415-1.638,7.787-14.194,5.663-17.469c8.142,1.364,16.283,12.555,18.76,20.198c4.601-5.46,13.214-20.198,18.406-22.928    c-0.708,4.64-0.944,20.744,2.124,23.747c3.068-5.733,20.529-12.557,27.609-13.648c-5.31,6.005-10.265,19.706-10.265,28.278    C162.574,413.253,97.092,413.253,81.517,413.253z"/>
	</g>
	<g>
		<rect x="276.705" y="131.38" style="fill:#00953A;" width="35.229" height="281.873"/>
		<path style="opacity:0.2;fill:#222222;" d="M276.705,131.38v111.354c5.289,3.14,11.272,4.918,17.614,4.918    c6.343,0,12.326-1.778,17.615-4.918V131.38H276.705z"/>
		<g>
			<path style="fill:#675DC6;" d="M409.643,116.392c0-16.308-11.706-30.264-28.302-36.046c7.646-15.823,6.056-33.969-5.475-45.501     c-11.532-11.53-29.678-13.121-45.501-5.475c-5.782-16.595-19.737-28.302-36.045-28.302c-16.308,0-30.264,11.707-36.045,28.302     c-15.823-7.647-33.969-6.056-45.5,5.475c-11.532,11.532-13.122,29.678-5.476,45.501c-16.596,5.781-28.302,19.737-28.302,36.045     c0,16.309,11.707,30.265,28.302,36.046c-7.646,15.824-6.056,33.969,5.476,45.5c11.531,11.532,29.677,13.123,45.5,5.477     c5.782,16.594,19.738,28.301,36.046,28.301c16.308,0,30.264-11.706,36.045-28.302c15.823,7.646,33.969,6.056,45.501-5.476     c11.531-11.531,13.122-29.676,5.475-45.5C397.936,146.655,409.643,132.699,409.643,116.392z"/>
			<path style="opacity:0.2;fill:#222222;" d="M258.274,29.37c-15.823-7.647-33.969-6.056-45.5,5.475     c-11.532,11.532-13.122,29.678-5.476,45.501c-16.596,5.781-28.302,19.737-28.302,36.045c0,16.309,11.707,30.265,28.302,36.046     c-7.646,15.824-6.056,33.969,5.476,45.5c11.531,11.532,29.677,13.123,45.5,5.477c5.782,16.594,19.738,28.301,36.046,28.301V1.069     C278.012,1.069,264.056,12.776,258.274,29.37z"/>
			<circle style="fill:#F9E0A4;" cx="294.32" cy="116.392" r="63.507"/>
			<path style="opacity:0.5;fill:#FFC843;" d="M294.32,52.885c-35.074,0-63.507,28.433-63.507,63.507     c0,35.074,28.433,63.506,63.507,63.506V52.885z"/>
		</g>
		<g>
			<path style="fill:#00953A;" d="M388.584,313.968c28.354-28.354,25.669-77.007,25.669-77.007s-48.654-2.685-77.008,25.668     c-28.353,28.353-25.669,77.008-25.669,77.008S360.231,342.322,388.584,313.968z"/>
			<path style="opacity:0.2;fill:#222222;" d="M311.577,339.638c0,0,48.654,2.684,77.007-25.67     c28.354-28.354,25.669-77.007,25.669-77.007L311.577,339.638z"/>
		</g>
		<g>
			<path style="fill:#00953A;" d="M200.055,313.968c-28.353-28.354-25.669-77.007-25.669-77.007s48.654-2.685,77.007,25.668     c28.354,28.353,25.669,77.008,25.669,77.008S228.408,342.322,200.055,313.968z"/>
			<path style="opacity:0.2;fill:#222222;" d="M277.062,339.638c0,0-48.654,2.684-77.007-25.67     c-28.353-28.354-25.669-77.007-25.669-77.007L277.062,339.638z"/>
		</g>
		<path style="fill:#95D600;" d="M255.835,413.253c0-14.085-11.327-30.189-15.928-33.463c9.204-0.273,28.671,5.186,34.688,15.285    c1.415-1.638,7.787-14.194,5.663-17.469c8.142,1.364,16.283,12.555,18.76,20.198c4.602-5.46,13.214-20.198,18.406-22.928    c-0.707,4.64-0.944,20.744,2.124,23.747c3.068-5.733,20.53-12.557,27.609-13.648c-5.31,6.005-10.264,19.706-10.264,28.278    C336.892,413.253,271.41,413.253,255.835,413.253z"/>
	</g>
</g>















</svg>
