<?xml version="1.0" encoding="iso-8859-1"?>
<!-- Generator: Adobe Illustrator 19.0.0, SVG Export Plug-In . SVG Version: 6.00 Build 0)  -->
<svg version="1.1" id="Layer_1" xmlns="http://www.w3.org/2000/svg" xmlns:xlink="http://www.w3.org/1999/xlink" x="0px" y="0px"
     viewBox="0 0 511.847 511.847" style="enable-background:new 0 0 511.847 511.847;" xml:space="preserve">
<path style="fill:#E5E8EC;" d="M327.386,414.19c0,91.097-42.02,97.657-93.854,97.657c-51.828,0-93.847-6.561-93.847-97.657
	s42.019-232.227,93.847-232.227C285.366,181.963,327.386,323.093,327.386,414.19z"/>
  <g style="opacity:0.1;">
	<path d="M154.79,304.223c23.782,2.296,50.203,3.046,78.031,3.046c28.374,0,55.28-0.781,79.428-3.187
		c-16.744-65.012-45.744-122.119-78.717-122.119C200.542,181.963,171.519,239.149,154.79,304.223z"/>
</g>
  <path style="fill:#965353;" d="M421.653,212.938c0,62.388-84.553,73.01-188.833,73.01c-104.289,0-188.825-10.622-188.825-73.01
	c0-62.372,84.537-152.875,188.825-152.875C337.101,60.063,421.653,150.566,421.653,212.938z"/>
  <g style="opacity:0.1;">
	<path d="M65.325,212.938c0-60.231,78.835-146.689,178.156-152.562c-3.53-0.203-7.083-0.312-10.661-0.312
		c-104.289,0-188.825,90.503-188.825,152.875c0,62.388,84.537,73.01,188.825,73.01c3.577,0,7.131-0.016,10.661-0.031
		C144.16,285.151,65.325,273.186,65.325,212.938z"/>
</g>
  <path style="fill:#9ED36A;" d="M166.966,41.569c0.008,0.016,21.283,94.955,124.414,127.805
	c85.146,27.117,115.434-51.422,115.434-51.422s20.697-81.584-64.448-108.701C239.233-23.592,166.982,41.569,166.966,41.569z"/>
  <g style="opacity:0.1;">
	<path d="M392.725,141.381C376.371,162,344.583,186.32,291.38,169.373c-67.775-21.587-100.195-69.979-114.456-100.625
		c-2.53,0.781-5.03,1.64-7.513,2.53c7.912,23.883,37.441,92.503,121.969,119.417c63.028,20.072,96.002-17.745,108.873-38.753
		C397.911,148.395,395.396,144.865,392.725,141.381z"/>
</g>
  <path style="fill:#8AC054;" d="M460.423,123.84L460.423,123.84L460.423,123.84L294.286,70.934l0,0
	c-5.607-1.796-11.605,1.312-13.387,6.92c-1.781,5.607,1.312,11.606,6.92,13.386v0.016l166.137,52.906v-0.016l0,0
	c5.607,1.796,11.605-1.312,13.387-6.919C469.139,131.619,466.03,125.621,460.423,123.84z"/>
  <g>
</g>
  <g>
</g>
  <g>
</g>
  <g>
</g>
  <g>
</g>
  <g>
</g>
  <g>
</g>
  <g>
</g>
  <g>
</g>
  <g>
</g>
  <g>
</g>
  <g>
</g>
  <g>
</g>
  <g>
</g>
  <g>
</g>
</svg>
